HIERARCHY
ROOT Hips
{
    OFFSET 0.0 0.0 0.0
    CHANNELS 6 Xposition Yposition Zposition Zrotation Xrotation Yrotation
    JOINT LHipJoint
    {
        OFFSET 0.1 0.0 0.0
        CHANNELS 3 Zrotation Xrotation Yrotation
        JOINT LeftHip
        {
            OFFSET 0.1697809249162674 0.0 0.0
            CHANNELS 3 Zrotation Xrotation Yrotation
            JOINT LeftKnee
            {
                OFFSET 0.0 0.0 -0.31428951025009155
                CHANNELS 3 Zrotation Xrotation Yrotation
                JOINT LeftAnkle
                {
                    OFFSET 0.0 0.0 -0.5130666494369507
                    CHANNELS 3 Zrotation Xrotation Yrotation
                    End Site
                    {
                        OFFSET 0.0 -0.1 0.0
                    }
                }
            }
        }
    }
    JOINT lowerback
    {
        OFFSET 0.0 0.0 0.1
        CHANNELS 3 Zrotation Xrotation Yrotation
        JOINT Chest
        {
            OFFSET 0.0 0.0 0.2723461091518402
            CHANNELS 3 Zrotation Xrotation Yrotation
            JOINT Chest2
            {
                OFFSET 0.0 0.0 0.31228214502334595
                CHANNELS 3 Zrotation Xrotation Yrotation
                JOINT LeftCollar
                {
                    OFFSET 0.1 0.0 0.0
                    CHANNELS 3 Zrotation Xrotation Yrotation
                    JOINT LeftShoulder
                    {
                        OFFSET 0.2186739444732666 0.0 0.0
                        CHANNELS 3 Zrotation Xrotation Yrotation
                        JOINT LeftElbow
                        {
                            OFFSET 0.2778531610965729 0.0 0.0
                            CHANNELS 3 Zrotation Xrotation Yrotation
                            JOINT LeftWrist
                            {
                                OFFSET 0.3733416497707367 0.0 0.0
                                CHANNELS 3 Zrotation Xrotation Yrotation
                                End Site
                                {
                                    OFFSET 0.1 0.0 0.0
                                }
                            }
                        }
                    }
                }
                JOINT Neck
                {
                    OFFSET 0.0 0.0 0.1
                    CHANNELS 3 Zrotation Xrotation Yrotation
                    JOINT Head
                    {
                        OFFSET 0.0 0.0 0.2967161536216736
                        CHANNELS 3 Zrotation Xrotation Yrotation
                        End Site
                        {
                            OFFSET 0.0 0.0 0.1692984402179718
                        }
                    }
                }
                JOINT RightCollar
                {
                    OFFSET -0.1 0.0 0.0
                    CHANNELS 3 Zrotation Xrotation Yrotation
                    JOINT RightShoulder
                    {
                        OFFSET -0.2186739444732666 0.0 0.0
                        CHANNELS 3 Zrotation Xrotation Yrotation
                        JOINT RightElbow
                        {
                            OFFSET -0.2778531610965729 0.0 0.0
                            CHANNELS 3 Zrotation Xrotation Yrotation
                            JOINT RightWrist
                            {
                                OFFSET -0.3733416497707367 0.0 0.0
                                CHANNELS 3 Zrotation Xrotation Yrotation
                                End Site
                                {
                                    OFFSET -0.1 0.0 0.0
                                }
                            }
                        }
                    }
                }
            }
        }
    }
    JOINT RHipJoint
    {
        OFFSET -0.1 0.0 0.0
        CHANNELS 3 Zrotation Xrotation Yrotation
        JOINT RightHip
        {
            OFFSET -0.1697809249162674 0.0 0.0
            CHANNELS 3 Zrotation Xrotation Yrotation
            JOINT RightKnee
            {
                OFFSET 0.0 0.0 -0.31428951025009155
                CHANNELS 3 Zrotation Xrotation Yrotation
                JOINT RightAnkle
                {
                    OFFSET 0.0 0.0 -0.5130666494369507
                    CHANNELS 3 Zrotation Xrotation Yrotation
                    End Site
                    {
                        OFFSET 0.0 -0.1 0.0
                    }
                }
            }
        }
    }
}
MOTION
Frames: 4
Frame Time: 0.06666666666666667
-1.031791907735169e-05 0.2253914326429367 -7.763858593534678e-05 -17.607010496073173 -19.56331659197721 -21.27406737968457 -3.1805546814635164e-15 -3.1805546814635164e-15 7.95138670365879e-16 150.65672521052858 31.616036864027162 -71.74411618595272 -139.00862531374295 -19.663779749729308 -107.53069294117998 -1.5902773407317582e-15 1.3241718894150476e-31 -9.541664044390549e-15 -3.1805546814635164e-15 -3.1805546814635164e-15 7.95138670365879e-16 -2.04091255413015 -2.5681464188846275 -3.342018938830793 1.7789508017061502 5.755413412979151e-07 1.6419618718369418e-06 0.0 0.0 0.0 22.982342313582787 -52.870151779067974 -124.5302015799946 -108.22078196985407 2.968599063444336e-06 -3.3484993632752977e-06 2.648343778830095e-31 3.1805546814635168e-15 -9.54166404439055e-15 0.0 0.0 0.0 7.304506617992175 -67.33936757981031 1.212633482869398 0.0 0.0 0.0 24.63272358718744 -34.807970042703715 130.72147424367586 60.701869189681524 -1.2268603626022843e-06 1.572449970554053e-08 0.0 0.0 -1.1927080055488186e-15 -3.1805546814635164e-15 -3.1805546814635164e-15 7.95138670365879e-16 -127.39653825700441 -44.91114318236468 -52.34949976028307 140.86890321473476 15.604125128529907 -93.39287242308656 -2.4138550067461805e-33 7.951386703658794e-16 3.4787316828507225e-16
-6.474067049566656e-06 0.22540341317653656 -8.094494114629924e-05 -19.673697706505486 -17.709369643475124 -21.019939030756998 0.0 0.0 7.95138670365879e-16 152.85364442525008 31.119306195905047 -64.5663174598614 -137.4019220071188 -13.238514086721576 -102.07535458427333 -7.951386703658794e-16 -2.782985346280577e-15 -4.770832022195275e-15 0.0 0.0 7.95138670365879e-16 -1.8781632841289362 -2.490607081176246 -3.4490084881333964 3.2916220984905817 -6.287431837088275e-07 -2.1213754766715384e-06 -8.827812596100317e-32 -3.1805546814635168e-15 -3.1805546814635168e-15 30.449906888230974 -57.32662004526109 -121.52610847275244 -115.21512027230352 2.4449174106383566e-06 7.13177396110733e-07 -3.1805546814635168e-15 1.5902773407317584e-15 -1.5902773407317584e-15 -8.827812596100317e-32 -3.1805546814635168e-15 -3.1805546814635168e-15 12.782510033103389 -66.93280675293379 3.7590074145432073 -8.827812596100317e-32 -3.1805546814635168e-15 -3.1805546814635168e-15 22.814334921355876 -37.75724057039193 131.1207585486799 62.21199583220048 1.8098220312729856e-06 1.0385251247649376e-06 1.5902773407317584e-15 -1.5902773407317584e-15 -1.5902773407317584e-15 0.0 0.0 7.95138670365879e-16 -99.75710143269913 -52.54015125725503 -37.03513064233152 125.26481688241877 24.483448683834837 -90.06692524518634 0.0 0.0 2.074814967985966e-15
-8.565933967474848e-06 0.22540391981601715 -8.228638034779578e-05 -19.18525650729151 -17.95860816326868 -21.01593625893984 -1.3793457181406746e-33 -3.975693351829396e-16 -3.975693351829396e-16 152.45127134669352 31.487554372106906 -67.38216736476639 -138.89875617442175 -14.996231260141242 -104.28537630930204 7.951386703658792e-16 3.975693351829396e-16 1.5902773407317584e-15 -1.3793457181406746e-33 -3.975693351829396e-16 -3.975693351829396e-16 -2.138801760561801 -2.838100841044385 -3.444507440948771 2.7572168561236836 -1.6837846099841988e-06 1.090644252488096e-06 3.1805546814635168e-15 -2.2069531490250793e-32 -7.951386703658792e-16 32.707519869932426 -55.9632893956003 -120.30978279516279 -113.17256396732057 1.5926723910207857e-06 2.7144059442864544e-06 -3.3104297235376187e-31 7.951386703658792e-15 4.770832022195275e-15 3.1805546814635168e-15 -2.2069531490250793e-32 -7.951386703658792e-16 15.233886193340119 -66.15599647463138 5.190226269786888 3.1805546814635168e-15 -2.2069531490250793e-32 -7.951386703658792e-16 24.30272380167484 -37.10245969973971 130.81305456643915 64.3491588024106 3.5102742752684684e-06 -9.238636057940636e-09 -3.310429723537619e-32 1.5902773407317588e-15 2.3854160110976384e-15 -1.3793457181406746e-33 -3.975693351829396e-16 -3.975693351829396e-16 -102.65366500949274 -52.28311744439234 -38.39011166600879 127.52651512592784 23.040334200429747 -88.59657313647327 0.0 0.0 1.9381505090168305e-15
-1.4162240404402837e-05 0.22539229691028595 -7.953705789986998e-05 -15.905530536421198 -20.109928599350944 -21.245609333833944 0.0 0.0 -3.578124016646457e-15 148.57352560472384 33.77152940938468 -74.9158002589215 -140.23209813045457 -22.14266811546693 -110.45089636420379 1.5902773407317588e-15 -1.1034765745125397e-32 -7.951386703658794e-16 0.0 0.0 -3.578124016646457e-15 -2.3688236633166317 -3.0414020057425555 -2.6201225935793775 0.36021825151952874 1.407580932575115e-07 -7.566210084123863e-07 1.5902773407317582e-15 3.1805546814635164e-15 -7.951386703658792e-16 25.744179586930514 -52.13781368723721 -122.3503592518329 -105.62460793161408 -3.764604086495273e-06 -2.946753703675543e-06 1.5902773407317588e-15 -1.5902773407317588e-15 2.2069531490250793e-32 1.5902773407317582e-15 3.1805546814635164e-15 -7.951386703658792e-16 8.58964973218012 -66.07874270049889 2.106906395640203 1.5902773407317582e-15 3.1805546814635164e-15 -7.951386703658792e-16 26.41130673996097 -33.892099155913066 129.84640789535746 61.80850422962672 -1.1432816965699772e-06 -4.442492645416146e-06 8.827812596100317e-32 1.5902773407317582e-15 -6.361109362927033e-15 0.0 0.0 -3.578124016646457e-15 -132.43154054427436 -43.379253217451364 -54.91690700388524 144.64065052160842 13.585668502737411 -91.63349081564698 -7.951386703658792e-16 -3.975693351829396e-16 -1.1430118386509513e-15
